<svg width="240" height="324" viewBox="0 0 240 324" fill="none" xmlns="http://www.w3.org/2000/svg">
<path fill-rule="evenodd" clip-rule="evenodd" d="M117.565 124.062C120.404 123.276 123.668 123.367 126.581 123.568C129.539 123.772 132.714 124.123 135.489 125.228C137.903 126.188 139.938 127.804 141.177 130.118C142.197 132.021 142.675 134.108 142.974 136.228C143.097 137.095 143.2 137.965 143.297 138.835L143.498 140.646C143.576 141.338 143.645 141.857 143.783 142.63C144.163 144.766 144.694 146.551 145.878 148.106C148.747 151.869 153.43 153.129 157.689 154.735C160.414 155.763 162.572 157.612 163.171 160.583C163.749 163.449 185.713 187.494 187.869 189.521L187.928 189.576C189.601 191.082 189.404 193.914 189.638 195.982C189.889 198.199 190.128 200.417 190.354 202.637C190.814 207.145 191.224 211.659 191.584 216.176C192.991 233.844 193.629 251.573 193.493 269.296L193.485 270.299C193.464 272.548 193.481 274.807 193.38 277.054C193.283 279.214 192.63 281.375 190.629 282.503C188.776 283.548 186.433 283.456 184.362 283.561L184.238 283.567C182.016 283.689 179.793 283.789 177.568 283.871C168.529 284.206 159.481 284.242 150.437 284.2C132.494 284.118 114.533 283.723 96.6069 284.728C92.0374 284.984 77.4697 283.428 72.9145 283.871C68.5607 284.295 72.2964 286.431 69.6067 286.29C60.7613 285.827 52.3711 283.853 43.8963 281.475C42.8376 281.178 42.0281 280.15 42.0414 279.039C42.1988 266.836 42.5431 254.636 43.0812 242.444C43.5606 231.584 44.1923 220.73 44.9759 209.887C45.3166 205.174 45.6859 200.463 46.0838 195.755L46.2562 193.737C46.4809 191.135 46.6102 188.485 47.1217 185.919C47.6277 183.381 48.7755 181.18 50.4399 179.214C51.9333 177.45 68.8421 163.639 72.9145 161.025C76.8124 158.522 80.9055 156.41 84.9071 154.091C86.5719 153.126 88.1708 153.473 89.5931 152.289C90.3429 151.664 101.222 147.457 104.158 146.068L104.244 146.027C106.491 144.949 108.558 143.78 110.111 141.915C110.631 141.29 111.652 137.352 111.654 136.094C111.657 133.847 111.487 131.479 112.165 129.302C112.975 126.699 114.928 124.792 117.565 124.062ZM122.379 182.012L104.994 215.881H116.298L108.195 234.699H125.99L119.678 261.058L155.777 215.881H142.23L155.777 198.094H146.381L155.777 183.031L122.379 182.012Z" fill="white"/>
<path fill-rule="evenodd" clip-rule="evenodd" d="M180.777 201.058C180.737 201.098 180.695 201.138 180.655 201.18C180.701 201.115 180.741 201.047 180.777 200.979V201.058ZM146.991 191.192C145.43 193.187 143.778 197.247 142.261 199.278C142.043 199.569 141.83 199.861 141.619 200.155C140.989 201.036 141.83 202.385 142.865 202.328C144.934 202.218 147 202.064 149.066 201.907C144.822 206.639 141.298 212.517 137.4 217.53C137.136 217.866 136.876 218.204 136.616 218.542C135.629 219.83 136.618 220.413 137.966 220.066C138.245 219.995 138.524 219.923 138.803 219.853C140.763 219.35 142.722 218.847 144.682 218.346C145.766 218.067 146.856 217.723 147.955 217.509C148.407 217.422 148.84 217.494 149.267 217.518C149.062 217.83 148.774 218.394 148.717 218.481C148.077 219.479 147.433 220.472 146.784 221.461C145.521 223.385 144.251 225.306 142.935 227.193C137.801 234.552 132.264 241.578 126.775 248.668C125.393 250.452 123.993 252.217 122.569 253.965C122.575 253.954 122.579 253.944 122.586 253.933C123.868 251.435 125.15 248.939 126.433 246.441C128.871 241.694 131.286 236.934 133.749 232.2C133.876 231.953 134.005 231.708 134.134 231.46C134.645 230.479 133.806 229.461 132.756 229.668C127.634 230.678 122.561 231.918 117.551 233.387C117.326 233.628 116.994 233.698 116.698 233.64C116.497 233.7 116.295 233.758 116.093 233.819C116.154 233.692 116.218 233.567 116.279 233.441C116.074 233.263 115.973 232.988 116.106 232.644C118.988 225.202 122.941 218.019 127.624 211.44C127.435 211.444 127.247 211.446 127.058 211.452C121.918 211.591 116.875 212.329 111.921 213.73C111.898 213.271 112.174 212.561 112.324 212.223C112.924 210.873 113.613 209.554 114.257 208.224C115.576 205.494 116.894 202.765 118.212 200.034C119.501 197.367 120.779 194.692 121.992 191.986C122.628 190.568 123.264 189.148 123.898 187.728C124.415 186.571 124.823 185.407 125.252 184.224C126.511 184.593 142.679 184.674 146.609 184.946C147.572 185.014 148.538 185.075 149.503 185.128C150.272 185.173 151.356 185.342 151.886 184.646L152.087 184.815C150.342 186.903 148.669 189.049 146.991 191.192V191.192ZM83.8666 152.396C83.9469 152.36 84.0251 152.324 84.1032 152.289C84.1434 152.346 84.192 152.398 84.2427 152.451C84.3694 152.58 84.4941 152.719 84.6251 152.846C84.3716 152.698 84.118 152.548 83.8666 152.396V152.396ZM196.861 271.173C196.715 268.094 196.553 265.014 196.379 261.935C196.037 255.916 195.684 249.896 195.213 243.886C194.256 231.706 193.365 219.529 191.93 207.394C191.328 202.306 190.487 197.258 189.644 192.206C189.752 192.109 189.862 192.012 189.969 191.917C189.853 193.299 191.729 194.174 192.659 192.796C192.729 192.692 192.796 192.589 192.864 192.481C193.669 191.179 195.524 184.792 195.395 184.251C195.162 183.276 194.516 182.41 194.011 181.552C193.569 180.802 193.124 180.051 192.672 179.308C191.769 177.817 190.84 176.342 189.866 174.899C187.848 171.91 185.643 169.04 183.044 166.531C180.355 163.932 177.268 161.795 174.08 159.857C172.548 158.927 170.968 158.084 169.358 157.297C167.769 156.524 166.031 155.668 164.319 155.228C164.222 155.203 164.123 155.338 164.212 155.41C164.666 155.769 165.141 156.107 165.625 156.433C164.315 155.979 162.965 155.651 161.605 155.535C158.97 154.609 156.304 153.762 153.682 152.796C151.105 151.844 148.565 150.775 146.852 148.522C145.388 146.597 144.462 144.24 143.75 141.945C142.969 139.415 142.658 136.786 141.936 134.252C141.879 134.047 141.543 134.023 141.498 134.252C140.983 136.91 141.006 139.899 141.3 142.583C141.608 145.398 142.4 148.161 144.124 150.45C146.127 153.111 148.844 154.592 151.901 155.773C154.367 156.729 156.864 157.701 159.388 158.555C159.059 158.771 158.725 158.986 158.381 159.191C157.012 160.005 155.588 160.728 154.132 161.377C151.474 162.562 148.675 163.45 145.859 164.171C140.617 165.506 135.243 166.185 129.838 166.274C119.026 166.453 108.093 164.188 98.2032 159.813C95.4187 158.58 92.6997 157.225 90.0082 155.803C89.1673 155.359 88.3223 154.911 87.4814 154.45C87.5511 154.446 87.623 154.44 87.6927 154.434C89.5709 154.256 91.4258 153.895 93.2427 153.383C96.9631 152.333 100.529 150.695 104.032 149.082C107.003 147.715 110.062 146.157 111.876 143.308C112.846 141.784 113.292 139.996 113.653 138.246C114.057 136.298 114.532 134.34 114.826 132.373C114.929 131.684 114.775 130.752 114.036 130.426C113.74 130.297 113.497 130.192 113.165 130.192C112.432 130.192 111.68 130.724 111.505 131.456C111.072 133.28 110.81 135.154 110.469 136.997C110.176 138.591 109.907 140.254 109.048 141.655C107.545 144.109 104.6 145.364 102.112 146.559C98.9575 148.072 95.8011 149.547 92.5244 150.775C91.0814 151.316 89.6131 151.807 88.1237 152.208C88.1828 151.843 88.1321 151.458 87.9166 151.168C87.5575 150.691 87.1497 150.373 86.687 150.008C86.1842 149.611 85.5082 149.404 84.9145 149.579C84.9145 149.581 84.9124 149.579 84.9124 149.579C84.6716 149.526 84.4054 149.547 84.1307 149.672C83.2814 150.061 82.4342 150.454 81.5871 150.853C69.399 156.59 57.5575 163.327 48.5892 173.588C47.2962 175.068 46.0856 176.623 44.9511 178.227C43.8483 179.785 42.4835 181.476 42.1793 183.408C42.154 183.568 42.3885 183.642 42.4286 183.477C42.5004 183.179 42.5976 182.888 42.718 182.604C42.4666 183.484 42.4814 184.418 42.8363 185.337C43.2568 186.419 44.0279 187.136 45.0018 187.421C44.0237 191.71 43.3666 196.055 42.8385 200.449C42.08 206.779 41.5413 213.124 41.1356 219.485C40.3244 232.181 39.9631 244.94 40.2251 257.659C40.299 261.254 40.4216 264.849 40.6075 268.442C40.7004 270.239 40.8018 272.033 40.918 273.83C41.0321 275.597 40.9392 277.543 42.4793 278.475C42.4983 278.545 42.5194 278.612 42.5385 278.682C42.9124 279.986 44.5793 279.568 44.7356 278.384C44.7378 278.372 44.7399 278.357 44.742 278.344C46.0011 277.383 45.811 275.781 45.718 274.244C45.6187 272.585 45.5131 270.928 45.4244 269.271C45.2554 266.092 45.1117 262.913 44.9828 259.732C44.7314 253.443 44.5899 247.145 44.5434 240.85C44.4504 228.26 45.1772 215.689 46.0392 203.135C46.4004 197.883 46.823 192.654 46.9518 187.404C47.6258 187.053 47.8328 186.056 47.4948 185.384C55.4765 190.832 62.8835 197.346 68.8307 204.917C69.8237 206.181 70.7723 207.482 71.6807 208.808C71.9765 209.239 72.2575 209.687 72.5406 210.135C72.2659 211.384 72.0525 212.654 71.7737 213.853C71.199 216.328 70.9561 218.895 70.6265 221.411C69.9568 226.519 69.4856 231.674 69.0863 236.809C68.3004 246.952 67.7173 257.093 67.5335 267.265C67.4321 273.018 67.2969 278.807 67.5504 284.558C67.3624 285.682 68.3744 286.781 69.4328 286.923C70.3603 287.047 71.2265 286.566 71.6321 285.79C74.5223 286.149 77.4885 286.314 80.3596 286.335C84.2279 286.363 88.0962 286.359 91.9645 286.276C99.7032 286.107 107.44 285.908 115.176 285.678C130.65 285.222 146.123 284.763 161.598 284.304C165.889 284.177 170.18 284.051 174.471 283.924C176.406 283.867 178.819 284.425 180.344 282.93C180.606 282.672 180.809 282.37 180.953 282.047C181.409 282.161 181.969 282.049 182.269 281.696C182.829 281.034 183.241 280.422 183.219 279.504C183.2 278.646 182.964 277.742 182.841 276.892C182.609 275.297 182.385 273.701 182.172 272.103C181.751 268.945 181.358 265.784 180.997 262.62C180.257 256.15 179.586 249.666 179.062 243.175C178.022 230.34 177.729 217.437 177.765 204.562C177.769 203.41 177.775 202.258 177.781 201.106C177.83 201.168 177.883 201.224 177.94 201.273C177.986 201.313 178.033 201.353 178.079 201.396C178.62 201.871 179.52 202.116 180.169 201.666C180.965 201.15 181.515 200.377 182.136 199.677C182.788 198.944 183.46 198.23 184.138 197.52C185.453 196.146 186.811 194.829 188.197 193.527C188.309 193.424 188.421 193.318 188.533 193.216C188.541 197.314 188.537 201.411 188.647 205.507C188.812 211.591 189.141 217.67 189.443 223.746C190.043 235.778 190.665 247.806 191.262 259.836C191.429 263.195 191.588 266.555 191.755 269.913C191.839 271.593 191.922 273.274 192.002 274.954C192.044 275.863 192.086 276.774 192.129 277.683C192.175 278.659 192.114 279.703 192.443 280.631C193.193 282.753 196.434 283.053 197.057 280.631C197.448 279.111 197.148 277.353 197.079 275.793C197.007 274.255 196.935 272.714 196.861 271.173V271.173Z" fill="black"/>
<path fill-rule="evenodd" clip-rule="evenodd" d="M164.338 80.9846C162.162 73.1253 153.843 69.696 146.351 69.1518C126.067 67.0423 105.419 78.3546 96.4265 96.6979C89.228 110.626 89.0026 125.258 104.476 133.211C105.321 133.677 106.204 134.175 107.105 134.628C107.888 135.356 108.694 136.056 109.575 136.643C118.001 142.186 128.342 144.584 138.364 144.064C153.162 143.765 158.444 133.72 161.677 120.839C165.086 108.014 166.993 94.0985 164.338 80.9846V80.9846Z" fill="white"/>
<path fill-rule="evenodd" clip-rule="evenodd" d="M174.051 155.064C173.361 152.974 172.494 150.947 171.685 148.899C171.514 147.878 171.4 146.849 171.371 145.811C171.258 142.104 171.952 138.365 172.729 134.756C174.309 127.42 175.985 120.16 176.825 112.688C178.327 99.3247 177.434 85.4285 171.358 73.2293C166.093 62.6618 157.171 54.0197 145.646 50.7818C142.24 49.8242 138.733 49.296 135.203 49.0851C134.766 49.0156 134.329 48.9475 133.895 48.882C128.984 48.1414 124.013 47.7724 119.049 48.0917C110.818 48.6216 102.664 50.9879 95.8091 55.668C88.9072 60.3805 84.0033 66.9881 81.7213 75.0476C79.3475 83.4318 79.5489 92.5121 75.4497 100.373C74.2387 102.695 72.8251 104.903 71.477 107.147C67.9 111.14 64.0165 115.578 63.1655 121.068C62.1155 127.853 66.0176 133.587 69.7106 138.881C73.0486 143.662 77.5782 150.264 74.143 156.15C72.5225 158.928 69.9261 161.005 67.9761 163.537C65.9542 166.166 64.3761 169.184 63.5606 172.41C62.0289 178.467 63.438 184.78 67.5345 189.514C69.6683 191.979 72.4085 193.608 75.3747 194.878C78.4106 196.176 81.3768 197.408 83.8866 199.617C85.0338 200.625 86.0838 201.73 87.0768 202.888C88.0021 204.336 89.0796 205.689 90.2944 206.927C91.6317 208.291 94.2514 206.424 93.024 204.82C92.9331 204.702 92.8444 204.586 92.7535 204.467C91.8556 203.296 90.9535 202.126 90.0092 200.993C87.193 196.529 86.1092 191.063 87.5099 185.849C87.8733 184.495 88.3845 183.21 89.0206 181.997C89.1556 182.349 89.3035 182.698 89.4599 183.043C90.0683 184.378 90.9221 185.961 92.0078 187.314C92.05 188.242 92.1897 189.161 92.4599 190.062C94.1331 195.643 99.7275 198.397 104.773 200.54C105.267 200.752 105.755 200.955 106.235 201.155C107.553 201.707 108.947 199.828 108.125 198.695C107.91 198.397 107.701 198.093 107.502 197.784C105.136 194.12 104.01 189.736 104.648 185.37C105.32 180.752 108.041 176.93 110.743 173.264C113.396 169.658 116.246 165.978 117.434 161.58C118.748 156.721 117.552 151.877 115.524 147.405C113.667 143.312 111.193 139.54 109.119 135.561C109.829 136.269 110.562 136.955 111.317 137.616C112.166 138.359 113.038 139.21 114.045 139.734C114.789 140.122 115.534 139.194 114.945 138.567C114.17 137.744 113.179 137.107 112.319 136.372C111.494 135.666 110.692 134.932 109.91 134.178C108.947 133.25 108.031 132.278 107.148 131.277C106.442 129.476 105.859 127.627 105.385 125.75C104.741 123.209 104.145 120.506 104.192 117.873C104.238 115.172 105.641 113.28 107.508 111.467C108.299 110.699 109.098 109.94 109.895 109.18C111.593 107.933 113.194 106.54 114.75 105.151C117.522 102.676 120.203 100.06 122.763 97.3672C123.45 96.6448 124.131 95.9144 124.804 95.1755C127.154 92.7627 129.396 90.2434 131.508 87.6371C133.608 86.872 135.626 85.8596 137.519 84.6676C136.695 85.5024 135.863 86.3267 135.035 87.1573C133.19 89.0087 131.274 90.8686 129.136 92.3774C128.916 92.5341 129.049 92.8659 129.32 92.813C132.039 92.2699 134.582 91.3653 136.957 89.9239C139.372 88.4571 141.499 86.4641 143.485 84.4647C144.609 83.9575 145.693 83.3044 146.684 82.6619C146.737 82.6281 146.789 82.5921 146.842 82.5581C145.866 85.6525 144.434 89.1567 141.381 90.2599C141.282 90.2959 141.288 90.4607 141.406 90.4544C143.978 90.3035 146.045 89.1459 147.677 87.4587C148.99 86.514 150.242 85.5128 151.437 84.4229C152.595 83.367 153.692 82.2345 154.733 81.062C153.277 83.9467 151.647 86.7674 150.039 89.5561C149.954 89.7041 150.132 89.9049 150.284 89.8013C153.679 87.5018 156.254 84.5345 158.361 81.0258C158.672 80.5093 158.968 79.9843 159.258 79.4553C159.039 80.2831 158.801 81.1057 158.545 81.9241C158.083 83.4054 157.628 84.8902 157.164 86.3707C156.915 87.1689 156.61 87.949 156.276 88.7158C156.037 89.2645 155.724 89.8121 155.675 90.4138C155.672 90.4537 155.716 90.4799 155.751 90.4713C157.104 90.1327 158.365 88.5881 159.33 87.6314C159.867 87.0986 160.37 86.5137 160.833 85.897C160.919 89.4492 160.978 93.0018 160.9 96.5645C160.754 103.108 160.332 109.649 159.791 116.171C159.313 121.937 158.961 127.988 155.745 132.999C153.256 136.877 149.221 139.561 144.837 140.861C144.451 140.978 144.062 141.081 143.671 141.174C137.325 142.681 131.004 140.973 125.392 137.955C123.706 137.049 122.266 139.509 123.892 140.521C129.981 144.313 137.699 145.604 144.59 143.905C144.373 152.048 148.385 159.773 152.375 166.68C154.608 170.546 156.844 174.386 158.422 178.577C159.761 182.136 160.672 185.828 160.978 189.626C161.342 194.103 160.985 198.604 160.359 203.043C160.325 203.284 160.292 203.527 160.256 203.767C160.116 204.721 160.972 205.52 161.899 205.032C166 202.876 167.768 198.281 168.844 194.033C169.849 190.053 170.532 185.995 170.912 181.91C171.47 183.451 171.922 185.029 172.273 186.64C172.321 186.87 172.368 187.101 172.414 187.331C172.68 188.677 174.717 188.582 175.042 187.331C175.101 187.105 175.158 186.879 175.211 186.65C176.891 179.856 177.343 172.769 176.456 165.822C175.989 162.168 175.209 158.562 174.051 155.064" fill="black"/>
<path fill-rule="evenodd" clip-rule="evenodd" d="M143.152 128.274C141.732 127.695 140.465 126.728 139.538 125.493C139.216 125.063 139.133 124.61 139.2 124.195C139.276 123.729 139.552 123.306 139.928 123.023C140.305 122.739 140.777 122.598 141.233 122.67C141.63 122.732 142.024 122.949 142.337 123.399L142.402 123.489C142.953 124.235 143.67 124.846 144.488 125.241C145.276 125.621 146.158 125.798 147.07 125.695C148.808 125.499 150.005 124.559 151.278 123.282C151.436 123.121 151.594 122.955 151.752 122.786C151.852 122.633 151.991 122.534 152.146 122.483C152.317 122.425 152.511 122.429 152.689 122.491C152.86 122.55 153.013 122.664 153.116 122.815C153.213 122.958 153.269 123.135 153.251 123.339C153.134 124.661 152.443 125.842 151.461 126.769C150.37 127.799 148.924 128.511 147.563 128.761C146.064 129.036 144.536 128.839 143.152 128.274V128.274ZM148.271 107.866C149.866 108.836 152.297 111.098 150.581 113.503C148.56 115.624 145.652 113.193 144.219 112.093C142.889 111.241 141.396 113.433 142.629 114.428C152.986 122.099 157.19 108.12 149.078 106.726C148.184 106.572 147.853 107.566 148.271 107.866ZM129.711 98.9429C129.887 96.7541 133.219 96.257 133.551 98.423C133.847 100.363 133.498 102.145 132.624 103.892C131.79 105.561 129.692 104.783 129.533 103.263C129.32 101.226 129.601 100.304 129.711 98.9429ZM155.076 97.9739C155.541 97.3652 156.211 96.9497 157.015 97.1845C159.526 97.9185 158.786 101.485 157.904 103.22C157.425 104.163 155.876 104.402 155.176 103.572C154.035 102.219 153.489 99.5157 154.939 98.1825C154.979 98.1136 155.022 98.044 155.076 97.9739ZM132.589 89.3654L132.986 89.2959C134.213 89.0836 135.738 88.8796 136.606 89.8665C137.067 90.3898 137.225 91.3624 136.606 91.8633C135.518 92.7446 134.314 92.4031 133.01 92.4777C131.935 92.5394 130.902 92.7174 129.867 93.0135C127.595 93.6629 125.744 94.8486 123.804 96.1505C123.55 96.3213 123.29 95.9956 123.411 95.7574C124.531 93.563 126.701 91.7604 128.875 90.6616C130.036 90.0751 131.305 89.5885 132.589 89.3654ZM152.787 88.3823L153.091 88.4445C156.394 89.1353 160.687 90.5153 162.251 93.7615C162.311 94.2205 162.248 94.3189 162.197 94.3832L162.179 94.4046C162.137 94.4595 162.104 94.5351 161.905 94.5976C161.85 94.5844 161.794 94.5705 161.737 94.5557C161.02 94.3677 160.453 94.1087 159.904 93.84L159.308 93.5465C158.617 93.2076 157.92 92.881 157.181 92.6399C155.605 92.1255 153.983 91.7631 152.337 91.5696C151.98 91.5277 151.636 91.4072 151.365 91.2006C151.107 91.0046 150.911 90.7332 150.821 90.3724C150.705 89.9056 150.738 89.5521 150.989 89.1309C151.177 88.8146 151.447 88.5953 151.756 88.4694C152.071 88.3411 152.43 88.3108 152.787 88.3823Z" fill="black"/>
<path fill-rule="evenodd" clip-rule="evenodd" d="M162.534 108.601C160.397 110.783 156.83 111.409 153.986 110.239C146.686 107.225 150.259 97.8254 155.89 95.3011C156.593 95.1279 157.532 94.7169 158.389 94.6237C158.467 94.5861 158.635 94.6948 158.84 94.592C165.048 95.2769 166.462 104.799 162.534 108.601M138.987 109.16C136.59 112.301 132.134 113.27 128.493 111.81C121.3 109.011 123.851 100.676 128.772 97.4079C139.168 93.5486 143.46 103.368 138.987 109.16M123.395 102.2C123.388 102.197 123.381 102.196 123.375 102.192C123.413 102.176 123.451 102.159 123.488 102.142C123.476 102.174 123.463 102.206 123.451 102.238C123.432 102.225 123.416 102.21 123.395 102.2M167.483 98.8049C166.896 98.8061 166.048 98.9014 165.562 99.3037C164.364 95.3119 159.942 91.6174 156.097 94.3113C153.068 95.2736 150.821 97.4077 149.544 100.245C147.241 98.8915 143.62 99.4694 141.623 101.259C140.315 96.9894 137.096 95.4943 133.265 95.2736C129.084 94.5969 124.916 98.6093 123.615 101.828C122.534 101.706 120.918 101.366 119.901 102.026C113.299 100.315 101.757 99.372 100.414 100.322C99.458 100.685 98.9331 102.916 100.269 103.036C101.433 102.873 100.133 101.402 101.307 101.241C107.559 100.858 113.63 102.102 119.816 102.624C120.368 103.358 122.153 103.604 123.105 103.309C121.606 108.769 124.843 112.484 129.693 113.597C137.203 115.301 143.737 108.663 141.773 101.759C144.049 100.641 146.665 100.689 149.144 101.278C145.002 116.337 169.55 115.661 165.716 99.8197C168.267 101.074 168.821 99.0579 167.483 98.8049" fill="black"/>
</svg>
